<?xml version="1.0" encoding="UTF-8"?>
<svg width="800" height="600" xmlns="http://www.w3.org/2000/svg">
  <defs>
    <linearGradient id="bg" x1="0%" y1="0%" x2="100%" y2="100%">
      <stop offset="0%" style="stop-color:#4a90e2;stop-opacity:1" />
      <stop offset="100%" style="stop-color:#7b68ee;stop-opacity:1" />
    </linearGradient>
  </defs>
  
  <!-- Background -->
  <rect width="800" height="600" fill="url(#bg)"/>
  
  <!-- Title -->
  <text x="400" y="100" text-anchor="middle" font-family="Arial, sans-serif" 
        font-size="32" font-weight="bold" fill="white">
    TURMA DA AVENTURA
  </text>
  
  <!-- Chapter Title -->
  <text x="400" y="150" text-anchor="middle" font-family="Arial, sans-serif" 
        font-size="24" fill="white">
    Capítulo 09 O Despertar Dos Sonhos
  </text>
  
  <!-- Characters (simplified representation) -->
  <g transform="translate(200, 250)">
    <!-- Will -->
    <circle cx="0" cy="0" r="30" fill="#8B4513"/>
    <circle cx="0" cy="-10" r="15" fill="#FDBCB4"/>
    <text x="0" y="50" text-anchor="middle" font-size="12" fill="white">Will</text>
    
    <!-- Sophie -->
    <circle cx="80" cy="0" r="30" fill="#FFD700"/>
    <circle cx="80" cy="-10" r="15" fill="#FDBCB4"/>
    <text x="80" y="50" text-anchor="middle" font-size="12" fill="white">Sophie</text>
    
    <!-- Max -->
    <circle cx="160" cy="0" r="30" fill="#FF6347"/>
    <circle cx="160" cy="-10" r="15" fill="#FDBCB4"/>
    <text x="160" y="50" text-anchor="middle" font-size="12" fill="white">Max</text>
    
    <!-- Leo -->
    <circle cx="240" cy="0" r="30" fill="#2F4F4F"/>
    <circle cx="240" cy="-10" r="15" fill="#FDBCB4"/>
    <text x="240" y="50" text-anchor="middle" font-size="12" fill="white">Leo</text>
    
    <!-- Mia -->
    <circle cx="320" cy="0" r="30" fill="#8B4513"/>
    <circle cx="320" cy="-10" r="15" fill="#FDBCB4"/>
    <text x="320" y="50" text-anchor="middle" font-size="12" fill="white">Mia</text>
    
    <!-- Jimmy -->
    <circle cx="400" cy="0" r="30" fill="#000"/>
    <circle cx="400" cy="-10" r="15" fill="#8B4513"/>
    <text x="400" y="50" text-anchor="middle" font-size="12" fill="white">Jimmy</text>
  </g>
  
  <!-- Scene description -->
  <text x="400" y="450" text-anchor="middle" font-family="Arial, sans-serif" 
        font-size="16" fill="white">
    Ilustração gerada por IA
  </text>
  
  <!-- Decorative elements -->
  <circle cx="100" cy="500" r="20" fill="rgba(255,255,255,0.3)"/>
  <circle cx="700" cy="500" r="25" fill="rgba(255,255,255,0.2)"/>
  <circle cx="150" cy="450" r="15" fill="rgba(255,255,255,0.4)"/>
  <circle cx="650" cy="480" r="18" fill="rgba(255,255,255,0.3)"/>
</svg>